<svg width="25" height="24" viewBox="0 0 25 24" fill="none" xmlns="http://www.w3.org/2000/svg">
<path d="M21.9301 20.2899L18.2201 16.6099C19.6602 14.8143 20.3576 12.5352 20.1689 10.2412C19.9802 7.94721 18.9198 5.81269 17.2056 4.27655C15.4915 2.74041 13.2539 1.91941 10.953 1.98237C8.65216 2.04534 6.46284 2.98747 4.83526 4.61505C3.20768 6.24263 2.26555 8.43194 2.20259 10.7328C2.13963 13.0337 2.96063 15.2713 4.49676 16.9854C6.0329 18.6996 8.16742 19.76 10.4614 19.9487C12.7554 20.1374 15.0345 19.44 16.8301 17.9999L20.5101 21.6799C20.6031 21.7736 20.7137 21.848 20.8355 21.8988C20.9574 21.9496 21.0881 21.9757 21.2201 21.9757C21.3521 21.9757 21.4828 21.9496 21.6047 21.8988C21.7266 21.848 21.8372 21.7736 21.9301 21.6799C22.1104 21.4934 22.2111 21.2442 22.2111 20.9849C22.2111 20.7256 22.1104 20.4764 21.9301 20.2899ZM11.2201 17.9999C9.83565 17.9999 8.48227 17.5894 7.33113 16.8202C6.17998 16.051 5.28278 14.9578 4.75296 13.6787C4.22315 12.3996 4.08453 10.9921 4.35462 9.63427C4.62472 8.27641 5.2914 7.02912 6.27037 6.05016C7.24934 5.07119 8.49662 4.4045 9.85449 4.13441C11.2124 3.86431 12.6198 4.00293 13.8989 4.53275C15.178 5.06256 16.2712 5.95977 17.0404 7.11091C17.8096 8.26206 18.2201 9.61544 18.2201 10.9999C18.2201 12.8564 17.4826 14.6369 16.1699 15.9497C14.8571 17.2624 13.0766 17.9999 11.2201 17.9999Z" fill="url(#paint0_linear_967_377)"/>
<defs>
<linearGradient id="paint0_linear_967_377" x1="2.19922" y1="1.979" x2="25.649" y2="16.376" gradientUnits="userSpaceOnUse">
<stop stop-color="#F3F9FF"/>
<stop offset="1" stop-color="#F1F0FF"/>
</linearGradient>
</defs>
</svg>
